<svg enable-background="new 0 0 32 32" height="512" viewBox="0 0 32 32" width="512" xmlns="http://www.w3.org/2000/svg"><g id="Layer_3"><path d="m4.091 6.988.943-.412c.078-.034.078-.145 0-.179l-.943-.413c-.023-.01-.041-.028-.05-.05l-.413-.943c-.034-.078-.145-.078-.179 0l-.412.943c-.01.023-.028.041-.05.05l-.943.412c-.078.034-.078.145 0 .179l.943.412c.023.01.041.028.05.05l.412.943c.034.078.145.078.179 0l.412-.942c.01-.022.028-.04.051-.05z" fill="#ffd731"/><circle cx="7.459" cy="3.361" fill="#ffce00" r=".293"/><path d="m26.778 5.235.569-.249c.047-.021.047-.088 0-.108l-.569-.249c-.014-.006-.025-.017-.03-.03l-.249-.569c-.021-.047-.088-.047-.108 0l-.249.569c-.006.014-.017.025-.03.03l-.569.249c-.047.021-.047.088 0 .108l.569.249c.014.006.025.017.03.03l.249.569c.021.047.088.047.108 0l.249-.569c.006-.013.017-.024.03-.03z" fill="#ffd731"/><circle cx="29.264" cy="7.474" fill="#ffce00" r=".751"/><path d="m18.491 19.434s-1.25 5.378 1.882 8.355c.434.412.154 1.138-.444 1.138h-7.826c-.598 0-.878-.726-.444-1.138 3.131-2.977 1.882-8.355 1.882-8.355z" fill="#ffd731"/><g fill="#ffce00"><path d="m28.484 12.528c-.044-1.025-.887-1.828-1.918-1.828h-3.503c-.566 0-1.024.459-1.024 1.024 0 .566.459 1.024 1.024 1.024h3.378c.02.797-.085 2.123-.881 2.955-.545.569-1.385.858-2.497.858-.566 0-1.024.459-1.024 1.024s.459 1.024 1.024 1.024c1.692 0 3.031-.502 3.977-1.49 1.368-1.428 1.492-3.49 1.444-4.591z"/><path d="m3.547 12.528c.044-1.025.886-1.828 1.917-1.828h3.503c.566 0 1.024.459 1.024 1.024 0 .566-.459 1.024-1.024 1.024h-3.378c-.02.797.085 2.123.881 2.955.545.569 1.385.858 2.497.858.566 0 1.024.459 1.024 1.024s-.459 1.024-1.024 1.024c-1.692 0-3.031-.502-3.977-1.49-1.368-1.428-1.492-3.49-1.443-4.591z"/><path d="m20.373 27.792c-1.105-1.052-1.658-2.403-1.92-3.713-.045-.227-.083-.453-.111-.675-.006-.045-.013-.09-.019-.134-.066-.572-.084-1.122-.074-1.617 0-.022.001-.043.002-.065.006-.238.018-.465.033-.673 0-.005.001-.01.001-.015.034-.437.083-.799.124-1.055.002-.013.004-.025.006-.038.018-.108.034-.197.046-.259.002-.008.004-.021.006-.029.011-.052.019-.091.019-.091h-4.943s.535 2.34.01 4.792c.851.273 1.725.39 2.607.368.471-.012.877.313 1.005.767.306 1.083.843 2.154 1.755 3.021.161.161.232.363.202.555h.807c.595.001.878-.725.444-1.139z"/></g><path d="m23.281 8.936c.512 1.299.8 2.761.8 4.298 0 5.445-3.61 9.858-8.066 9.858s-8.066-4.413-8.066-9.858c0-1.538.288-2.999.8-4.298z" fill="#ffd731"/><path d="m24.085 13.236c0 5.447-3.611 9.856-8.07 9.856-1.584 0-3.057-.555-4.297-1.513.676.242 1.392.363 2.128.363 4.338 0 7.838-4.287 7.838-9.573 0-1.2-.182-2.361-.514-3.43h2.108c.515 1.301.807 2.753.807 4.297z" fill="#ffce00"/><path d="m9.848 14.628c.206-.022.355-.207.334-.412-.03-.282-.048-.568-.053-.859-.013-.692.048-1.387.183-2.063.041-.203-.091-.401-.294-.441-.2-.039-.401.092-.441.294-.145.729-.211 1.478-.197 2.224.006.312.025.621.057.923.021.193.183.336.373.336.011 0 .024-.001.038-.002z" fill="#ffe576"/><path d="m10.667 16.357c-.08-.225-.152-.455-.215-.69-.054-.2-.262-.319-.459-.265-.2.054-.319.26-.265.459.069.255.147.505.234.748.055.153.199.249.353.249.042 0 .084-.007.126-.022.194-.069.296-.284.226-.479z" fill="#ffe576"/><path d="m23.07 8.936h-14.11c-.829 0-1.501-.672-1.501-1.501 0-.829.672-1.501 1.501-1.501h14.11c.829 0 1.501.672 1.501 1.501 0 .829-.672 1.501-1.501 1.501z" fill="#ffd731"/><path d="m24.57 7.435c0 .827-.666 1.503-1.503 1.503h-2.472c.837 0 1.503-.676 1.503-1.503s-.666-1.503-1.503-1.503h2.472c.837 0 1.503.676 1.503 1.503z" fill="#ffce00"/></g></svg>