<svg height="512" viewBox="0 0 64 64" width="512" xmlns="http://www.w3.org/2000/svg"><g id="Layer_8" data-name="Layer 8"><path d="m45 63v-1.834q0-1.584.034-3.166h9.966l-1.5-10.5a10.608 10.608 0 0 0 -3-6 10.608 10.608 0 0 0 -6-3l-3.5-.5h-18l-3.5.5a10.608 10.608 0 0 0 -6 3 10.608 10.608 0 0 0 -3 6l-1.5 10.5h9.966q.034 1.582.034 3.166v1.834z" fill="#212121"/><path d="m50.5 41.5a10.608 10.608 0 0 0 -6-3l-3.5-.5h-12l-3.5.5a10.607 10.607 0 0 0 -9 9l-1.5 10.5h3.966q.034 1.582.034 3.166v1.834h26v-1.834q0-1.584.034-3.166h9.966l-1.5-10.5a10.608 10.608 0 0 0 -3-6z" fill="#383838"/><path d="m35 38h6v25h-6z" fill="#d7e0ef"/><path d="m45.03 58h4.97v-4.6a13.337 13.337 0 0 0 -3.98-9.5c-.56 4.68-.89 9.39-.99 14.1z" fill="#d7e0ef"/><path d="m23 38h6v25h-6z" fill="#c1cfe8"/><path d="m25.5 38.5a10.591 10.591 0 0 0 -2.5.678v23.822h6v-25z" fill="#d7e0ef"/><path d="m18.97 58h-4.97v-4.6a13.337 13.337 0 0 1 3.98-9.5c.56 4.68.89 9.39.99 14.1z" fill="#c1cfe8"/><path d="m17.98 43.9c-.212.208-.4.432-.6.653a10.6 10.6 0 0 0 -.88 2.947l-1.5 10.5h3.97c-.1-4.71-.43-9.42-.99-14.1z" fill="#d7e0ef"/><path d="m37 36 4 2-4 6-5-5-5 5-4-6 4-2z" fill="#4c4c4c"/><path d="m37 32.481v3.519l-5 3-5-3v-3.475z" fill="#d08d78"/><path d="m41.5 21.972-.5 4.057a9.1 9.1 0 0 1 -9.033 7.971 9.1 9.1 0 0 1 -9.02-7.9l-.55-4.127 4.603-4.973h10z" fill="#d08d78"/><path d="m31.959 2a7.727 7.727 0 0 1 3.751.972l5.5 3.057a3.4 3.4 0 0 1 1.749 2.971v6l1 4.851a1.822 1.822 0 0 1 .037.4 1.788 1.788 0 0 1 -1.783 1.749 8.969 8.969 0 0 1 -2.459-.344l-3.871-1.107a14.306 14.306 0 0 0 -3.924-.549h.041a14.3 14.3 0 0 0 -3.923.549l-3.872 1.107a8.964 8.964 0 0 1 -2.459.344 1.748 1.748 0 0 1 -1.746-1.746v-.081a1.8 1.8 0 0 1 .034-.344l.966-4.829v-6a3.4 3.4 0 0 1 1.748-2.971l5.5-3.057a7.727 7.727 0 0 1 3.752-.972z" fill="#c1cfe8"/><path d="m11 63v-5h7.966l.034 5z" fill="#d08d78"/><path d="m53 58v5h-8l.03-5z" fill="#f2b9a1"/><path d="m33.036 11a18.137 18.137 0 0 1 3.964.437l5.962 1.331v-3.768a3.4 3.4 0 0 0 -1.748-2.971l-5.5-3.057a7.652 7.652 0 0 0 -7.461 0l-5.5 3.057a3.382 3.382 0 0 0 -.673.5 3.4 3.4 0 0 0 -.039.471 4.813 4.813 0 0 0 5.859 4.7l1.194-.265a18.17 18.17 0 0 1 3.942-.435z" fill="#d7e0ef"/><path d="m35 14a18.164 18.164 0 0 0 -3.944.433l-2.721.605a6.813 6.813 0 0 0 -5.2 5.312l-.1.479a1.8 1.8 0 0 0 -.034.344v.081a1.721 1.721 0 0 0 .123.631 9.061 9.061 0 0 0 1.083-.229l3.872-1.107a14.309 14.309 0 0 1 3.901-.549 14.314 14.314 0 0 1 3.9.548l3.871 1.107a8.969 8.969 0 0 0 2.462.345 1.788 1.788 0 0 0 1.787-1.746 1.822 1.822 0 0 0 -.037-.4l-.932-4.5-4.075-.909a18.128 18.128 0 0 0 -3.956-.445z" fill="#d7e0ef"/><path d="m43.184 16.086-.225-1.086v-1.025l-6.785-1.515a19.29 19.29 0 0 0 -8.339 0l-6.835 1.516v1.024l-.217 1.085.434-.109 7.052-1.567a17.233 17.233 0 0 1 7.469 0l6.982 1.558z" fill="#95afd1"/><g fill="#f2b9a1"><path d="m39.754 22.656-3.871-1.107a14.173 14.173 0 0 0 -7.806 0l-.774.222a2.7 2.7 0 0 0 -1.936 2.955l.183 1.374a9.1 9.1 0 0 0 7.718 7.8 9.094 9.094 0 0 0 7.732-7.871l.386-3.087a8.9 8.9 0 0 1 -1.632-.286z"/><path d="m37 33.471a9.063 9.063 0 0 1 -5.033 1.529 9.056 9.056 0 0 1 -2.967-.505 2.658 2.658 0 0 0 1.29 2.279l2.71 1.626 4-2.4z"/><path d="m19 63-.034-5h-3.966l-.678 5z"/></g></g></svg>