<svg xmlns="http://www.w3.org/2000/svg" version="1.1" xmlns:xlink="http://www.w3.org/1999/xlink" xmlns:svgjs="http://svgjs.com/svgjs" width="512" height="512" x="0" y="0" viewBox="0 0 508.445 508.445" style="enable-background:new 0 0 512 512" xml:space="preserve" class=""><g><path d="M159.337 309.325a6.18 6.18 0 0 1-4.384-1.817L109.29 261.84a6.198 6.198 0 0 1 0-8.768 6.198 6.198 0 0 1 8.768 0l45.663 45.668a6.198 6.198 0 0 1 0 8.768 6.178 6.178 0 0 1-4.384 1.817z" fill="#6b7280" data-original="#000000" class="" opacity="1"></path><path d="M113.674 309.325a6.18 6.18 0 0 1-4.384-1.817 6.198 6.198 0 0 1 0-8.768l45.663-45.668c2.422-2.422 6.346-2.422 8.768 0s2.422 6.346 0 8.768l-45.663 45.669a6.18 6.18 0 0 1-4.384 1.816zM51.863 454.517a6.18 6.18 0 0 1-4.384-1.817L1.816 407.038a6.198 6.198 0 0 1 0-8.768 6.198 6.198 0 0 1 8.768 0l45.663 45.663a6.198 6.198 0 0 1-4.384 10.584z" fill="#6b7280" data-original="#000000" class="" opacity="1"></path><path d="M6.2 454.517a6.18 6.18 0 0 1-4.384-1.817 6.198 6.198 0 0 1 0-8.768l45.663-45.663a6.198 6.198 0 0 1 8.768 0 6.198 6.198 0 0 1 0 8.768L10.585 452.7a6.18 6.18 0 0 1-4.385 1.817zM326.66 111.992a6.18 6.18 0 0 1-4.384-1.817l-45.668-45.663a6.198 6.198 0 0 1 0-8.768 6.198 6.198 0 0 1 8.768 0l45.668 45.663a6.198 6.198 0 0 1 0 8.768 6.176 6.176 0 0 1-4.384 1.817z" fill="#6b7280" data-original="#000000" class="" opacity="1"></path><path d="M280.992 111.992a6.18 6.18 0 0 1-4.384-1.817 6.198 6.198 0 0 1 0-8.768l45.668-45.663a6.198 6.198 0 0 1 8.768 0 6.198 6.198 0 0 1 0 8.768l-45.668 45.663a6.178 6.178 0 0 1-4.384 1.817zM502.244 271.274a6.18 6.18 0 0 1-4.384-1.817l-45.663-45.663a6.198 6.198 0 0 1 0-8.768 6.198 6.198 0 0 1 8.768 0l45.663 45.663a6.198 6.198 0 0 1 0 8.768 6.18 6.18 0 0 1-4.384 1.817z" fill="#6b7280" data-original="#000000" class="" opacity="1"></path><path d="M456.581 271.274a6.18 6.18 0 0 1-4.384-1.817 6.198 6.198 0 0 1 0-8.768l45.663-45.663a6.198 6.198 0 0 1 8.768 0 6.198 6.198 0 0 1 0 8.768l-45.663 45.663a6.176 6.176 0 0 1-4.384 1.817zM296.493 167.034c-.4 0-.805-.037-1.211-.121-3.361-.666-5.546-3.93-4.874-7.284a416.14 416.14 0 0 0 5.171-33.201c.394-3.403 3.464-5.85 6.866-5.45a6.193 6.193 0 0 1 5.45 6.866 421.24 421.24 0 0 1-5.329 34.194 6.192 6.192 0 0 1-6.073 4.996zM182.11 362.369a6.202 6.202 0 0 1-3.899-11.027c20.097-16.216 38.154-35.09 53.674-56.096 2.034-2.755 5.916-3.343 8.671-1.308s3.343 5.922 1.308 8.671c-16.149 21.859-34.944 41.503-55.866 58.384a6.16 6.16 0 0 1-3.888 1.376zm74.516-87.431a6.148 6.148 0 0 1-3.088-.83c-2.967-1.708-3.991-5.504-2.277-8.465 12.704-22.041 23.004-46.104 30.609-71.53.981-3.282 4.451-5.141 7.714-4.166a6.2 6.2 0 0 1 4.166 7.714c-7.878 26.346-18.559 51.306-31.747 74.17a6.196 6.196 0 0 1-5.377 3.107zM122.46 399.143a6.197 6.197 0 0 1-5.789-3.984 6.203 6.203 0 0 1 3.573-8.005c.121-.048 11.904-4.614 29.113-15.289 2.912-1.811 6.733-.902 8.538 1.998a6.204 6.204 0 0 1-1.998 8.538c-18.317 11.359-30.706 16.137-31.227 16.337a6.152 6.152 0 0 1-2.21.405z" fill="#6b7280" data-original="#000000" class="" opacity="1"></path><path d="M254.228 172.538a6.197 6.197 0 0 1-4.79-2.253 6.205 6.205 0 0 1 .836-8.732l47.515-39.202a6.21 6.21 0 0 1 8.732.836 6.205 6.205 0 0 1-.836 8.732l-47.515 39.202a6.193 6.193 0 0 1-3.942 1.417z" fill="#6b7280" data-original="#000000" class="" opacity="1"></path><path d="M329.712 188.227a6.194 6.194 0 0 1-5.528-3.385l-27.969-54.89a6.194 6.194 0 0 1 2.707-8.338c3.058-1.568 6.782-.339 8.338 2.707l27.969 54.89a6.194 6.194 0 0 1-2.707 8.338 6.175 6.175 0 0 1-2.81.678zM184.133 404.332c-37.348 0-62.302-5.183-62.993-5.329a6.203 6.203 0 0 1-4.735-7.376c.727-3.354 4.039-5.474 7.369-4.747 1.811.394 175.807 36.313 292.951-88.242l-45.396 4.668c-3.451.26-6.455-2.132-6.806-5.535-.345-3.409 2.132-6.455 5.535-6.806l61.279-6.297c2.561-.218 4.941 1.042 6.116 3.276a6.196 6.196 0 0 1-.738 6.891c-78.277 92.76-185.448 109.497-252.582 109.497z" fill="#6b7280" data-original="#000000" class="" opacity="1"></path><path d="M424.84 358.227a6.199 6.199 0 0 1-6.165-6.921l7.139-61.188c.4-3.391 3.367-5.843 6.879-5.438a6.199 6.199 0 0 1 5.438 6.879l-7.139 61.188a6.201 6.201 0 0 1-6.152 5.48zM315.719 322.138c-14.078 0-25.535-11.457-25.535-25.541 0-14.078 11.457-25.535 25.535-25.535 14.085 0 25.541 11.457 25.541 25.535 0 14.085-11.457 25.541-25.541 25.541zm0-38.675c-7.242 0-13.134 5.892-13.134 13.134 0 7.248 5.892 13.14 13.134 13.14 7.248 0 13.14-5.892 13.14-13.14-.001-7.242-5.892-13.134-13.14-13.134zM345.995 454.517c-14.078 0-25.535-11.457-25.535-25.535 0-14.085 11.457-25.541 25.535-25.541 14.085 0 25.541 11.457 25.541 25.541 0 14.079-11.457 25.535-25.541 25.535zm0-38.674c-7.242 0-13.134 5.892-13.134 13.14 0 7.242 5.892 13.134 13.134 13.134 7.248 0 13.14-5.892 13.14-13.134-.001-7.249-5.892-13.14-13.14-13.14zM51.863 356.823c-14.078 0-25.535-11.457-25.535-25.535 0-14.085 11.457-25.541 25.535-25.541 14.085 0 25.541 11.457 25.541 25.541 0 14.078-11.457 25.535-25.541 25.535zm0-38.675c-7.242 0-13.134 5.892-13.134 13.14 0 7.242 5.892 13.134 13.134 13.134 7.248 0 13.14-5.892 13.14-13.134-.001-7.248-5.892-13.14-13.14-13.14zM381.333 251.129c-14.085 0-25.541-11.457-25.541-25.541 0-14.078 11.457-25.535 25.541-25.535s25.541 11.457 25.541 25.535c0 14.084-11.456 25.541-25.541 25.541zm0-38.675c-7.248 0-13.14 5.892-13.14 13.134 0 7.248 5.892 13.14 13.14 13.14s13.14-5.892 13.14-13.14c0-7.242-5.892-13.134-13.14-13.134zM189.219 234.38c-14.078 0-25.535-11.457-25.535-25.541 0-14.078 11.457-25.535 25.535-25.535 14.085 0 25.541 11.457 25.541 25.535 0 14.084-11.456 25.541-25.541 25.541zm0-38.675c-7.242 0-13.134 5.892-13.134 13.134 0 7.248 5.892 13.14 13.134 13.14 7.248 0 13.14-5.892 13.14-13.14 0-7.242-5.892-13.134-13.14-13.134z" fill="#6b7280" data-original="#000000" class="" opacity="1"></path></g></svg>